<svg width="20" height="21" viewBox="0 0 20 21" fill="none" xmlns="http://www.w3.org/2000/svg">
<path d="M17.3049 2.69507C15.5668 0.957012 13.2558 -9.72104e-05 10.798 7.4054e-09C10.3952 7.4054e-09 10.0688 0.326458 10.0688 0.729134C10.0688 1.13181 10.3953 1.45827 10.798 1.45827C12.8664 1.45817 14.811 2.26362 16.2737 3.72626C17.7364 5.18891 18.5419 7.13365 18.5418 9.20216C18.5418 9.60483 18.8681 9.93129 19.2709 9.93129C19.6736 9.93129 20 9.60483 20 9.20225C20.0001 6.7441 19.043 4.43313 17.3049 2.69507Z" fill="#F0BA3E"/>
<path d="M14.3055 9.20178C14.3055 9.60445 14.632 9.93091 15.0347 9.93081C15.4374 9.93081 15.7638 9.60436 15.7638 9.20168C15.7636 6.46403 13.5359 4.23647 10.7981 4.23608C10.798 4.23608 10.7981 4.23608 10.798 4.23608C10.3953 4.23608 10.0689 4.56244 10.0688 4.96512C10.0688 5.3678 10.3952 5.69425 10.7979 5.69435C12.7318 5.69464 14.3053 7.26802 14.3055 9.20178Z" fill="#F0BA3E"/>
<path d="M12.6919 12.9188C11.5805 12.8613 11.0143 13.6878 10.7428 14.0849C10.5154 14.4173 10.6005 14.871 10.9329 15.0984C11.2653 15.3258 11.719 15.2406 11.9464 14.9082C12.2672 14.4391 12.4126 14.3653 12.6097 14.3747C13.2408 14.4489 15.7262 16.2701 15.975 16.8396C16.0374 17.0073 16.0351 17.1717 15.9681 17.3717C15.7072 18.1462 15.2753 18.6904 14.7188 18.9455C14.1901 19.1878 13.542 19.1659 12.8448 18.8822C10.2416 17.8211 7.96729 16.3404 6.08516 14.481C6.08438 14.4803 6.0836 14.4796 6.08292 14.4788C4.22742 12.5985 2.74942 10.3271 1.69013 7.7279C1.40635 7.03016 1.38438 6.38192 1.62675 5.85334C1.88185 5.29687 2.42607 4.86493 3.19983 4.60429C3.40049 4.53701 3.56459 4.53487 3.73073 4.5967C4.30228 4.84646 6.12346 7.33173 6.19696 7.95568C6.20746 8.16022 6.13308 8.30547 5.6644 8.6257C5.33191 8.8528 5.24646 9.30652 5.47366 9.639C5.70076 9.97149 6.15438 10.0568 6.48696 9.82975C6.88419 9.55851 7.71054 8.99387 7.65318 7.87868C7.58999 6.71382 5.32404 3.629 4.24132 3.23089C3.7598 3.05143 3.2533 3.04831 2.73532 3.22214C1.56987 3.61461 0.728162 4.31438 0.301181 5.24573C-0.112967 6.14927 -0.0998428 7.19757 0.339582 8.27786C1.47324 11.0595 3.05935 13.4933 5.05377 15.512C5.05863 15.517 5.06359 15.5219 5.06865 15.5266C7.08592 17.5173 9.51695 19.1005 12.2948 20.2328C12.8511 20.4591 13.399 20.5723 13.9229 20.5723C14.4161 20.5723 14.8884 20.472 15.3265 20.2711C16.2579 19.8443 16.9576 19.0026 17.3504 17.8364C17.5238 17.3194 17.521 16.8131 17.3429 16.3338C16.9434 15.2482 13.8586 12.9822 12.6919 12.9188Z" fill="#F0BA3E"/>
</svg>
