<svg width="20" height="20" viewBox="0 0 20 20" fill="none" xmlns="http://www.w3.org/2000/svg">
<path fill-rule="evenodd" clip-rule="evenodd" d="M10 17.8154C14.4183 17.8154 18 14.2704 18 9.89747C18 5.52449 14.4183 1.97949 10 1.97949C5.58172 1.97949 2 5.52449 2 9.89747C2 14.2704 5.58172 17.8154 10 17.8154ZM10 19.7949C15.5228 19.7949 20 15.3637 20 9.89747C20 4.43125 15.5228 0 10 0C4.47715 0 0 4.43125 0 9.89747C0 15.3637 4.47715 19.7949 10 19.7949Z" fill="#F0BA3E"/>
<path fill-rule="evenodd" clip-rule="evenodd" d="M0.292847 18.6003L3.79285 15.1362L5.20706 16.5359L1.70706 20L0.292847 18.6003Z" fill="#F0BA3E"/>
</svg>
